Coordinates
nRows=243
nColumns=2
inDegrees=yes
endheader
time	ankle_angle_r	
3.39293	  9.399545	
3.42619	  9.411779	
3.45946	  9.411033	
3.49272	  9.399483	
3.52598	  9.387669	
3.55925	  9.381655	
3.59251	  9.383344	
3.62578	  9.392478	
3.65904	  9.407194	
3.6923	  9.429206	
3.72557	  9.458731	
3.75883	  9.486556	
3.7921	  9.503001	
3.82536	  9.503866	
3.85862	  9.490369	
3.89189	  9.475940	
3.92515	  9.474186	
3.95842	  9.482099	
3.99168	  9.492899	
4.02494	  9.504053	
4.05821	  9.511183	
4.09147	  9.513551	
4.12474	  9.510877	
4.158	  9.498244	
4.19126	  9.481942	
4.22453	  9.474810	
4.25779	  9.473903	
4.29106	  9.471207	
4.32432	  9.466078	
4.35758	  9.457864	
4.39085	  9.450057	
4.42411	  9.446909	
4.45738	  9.442682	
4.49064	  9.435855	
4.5239	  9.434053	
4.55717	  9.435980	
4.59043	  9.435343	
4.6237	  9.433478	
4.65696	  9.430152	
4.69022	  9.420625	
4.72349	  9.406292	
4.75675	  9.393550	
4.79002	  9.385672	
4.82328	  9.379218	
4.85654	  9.368705	
4.88981	  9.358274	
4.92307	  9.356883	
4.95634	  9.363418	
4.9896	  9.371334	
5.02286	  9.375646	
5.05613	  9.371875	
5.08939	  9.360366	
5.12266	  9.344416	
5.15592	  9.327737	
5.18918	  9.318699	
5.22245	  9.321327	
5.25571	  9.328235	
5.28898	  9.331478	
5.32224	  9.328544	
5.3555	  9.322222	
5.38877	  9.318489	
5.42203	  9.316585	
5.4553	  9.311017	
5.48856	  9.303574	
5.52182	  9.300127	
5.55509	  9.305631	
5.58835	  9.324153	
5.62162	  9.351389	
5.65488	  9.377460	
5.68814	  9.397020	
5.72141	  9.405384	
5.75467	  9.399973	
5.78794	  9.388833	
5.8212	  9.383698	
5.85446	  9.387063	
5.88773	  9.389255	
5.92099	  9.381462	
5.95426	  9.369962	
5.98752	  9.365253	
6.02078	  9.367648	
6.05405	  9.377602	
6.08731	  9.397627	
6.12058	  9.412827	
6.15384	  9.402818	
6.1871	  9.373390	
6.22037	  9.346524	
6.25363	  9.336487	
6.2869	  9.343259	
6.32016	  9.351822	
6.35342	  9.353175	
6.38669	  9.356145	
6.41995	  9.362904	
6.45322	  9.368580	
6.48648	  9.377229	
6.51974	  9.387984	
6.55301	  9.395642	
6.58627	  9.403558	
6.61954	  9.408708	
6.6528	  9.402126	
6.68606	  9.387671	
6.71933	  9.374215	
6.75259	  9.367254	
6.78586	  9.372314	
6.81912	  9.387932	
6.85238	  9.404835	
6.88565	  9.412783	
6.91891	  9.404602	
6.95218	  9.384469	
6.98544	  9.365450	
7.0187	  9.354642	
7.05197	  9.350458	
7.08523	  9.350508	
7.1185	  9.355627	
7.15176	  9.366078	
7.18502	  9.376200	
7.21829	  9.382054	
7.25155	  9.388213	
7.28482	  9.394739	
7.31808	  9.394907	
7.35134	  9.391508	
7.38461	  9.391294	
7.41787	  9.391281	
7.45114	  9.389109	
7.4844	  9.388004	
7.51766	  9.386989	
7.55093	  9.383435	
7.58419	  9.378316	
7.61746	  9.375007	
7.65072	  9.380203	
7.68398	  9.396224	
7.71725	  9.415425	
7.75051	  9.432721	
7.78378	  9.446399	
7.81704	  9.450128	
7.8503	  9.446652	
7.88357	  9.448785	
7.91683	  9.457940	
7.9501	  9.467209	
7.98336	  9.473611	
8.01662	  9.476323	
8.04989	  9.479301	
8.08315	  9.485307	
8.11642	  9.488928	
8.14968	  9.489615	
8.18294	  9.487846	
8.21621	  9.474498	
8.24947	  9.453176	
8.28274	  9.441904	
8.316	  9.440943	
8.34926	  9.438406	
8.38253	  9.433515	
8.41579	  9.429077	
8.44906	  9.426377	
8.48232	  9.429732	
8.51558	  9.438197	
8.54885	  9.440954	
8.58211	  9.429209	
8.61538	  9.407969	
8.64864	  9.389470	
8.6819	  9.379220	
8.71517	  9.376779	
8.74843	  9.380306	
8.7817	  9.385832	
8.81496	  9.392420	
8.84822	  9.400180	
8.88149	  9.404214	
8.91475	  9.405957	
8.94802	  9.410154	
8.98128	  9.407589	
9.01454	  9.392534	
9.04781	  9.379058	
9.08107	  9.377243	
9.11434	  9.380739	
9.1476	  9.380850	
9.18086	  9.372478	
9.21413	  9.358020	
9.24739	  9.348170	
9.28066	  9.345972	
9.31392	  9.344892	
9.34718	  9.345189	
9.38045	  9.352386	
9.41371	  9.364743	
9.44698	  9.375345	
9.48024	  9.380749	
9.5135	  9.382031	
9.54677	  9.379863	
9.58003	  9.371916	
9.6133	  9.362779	
9.64656	  9.366890	
9.67982	  9.385673	
9.71309	  9.402868	
9.74635	  9.407160	
9.77962	  9.395082	
9.81288	  9.368447	
9.84614	  9.340015	
9.87941	  9.321649	
9.91267	  9.314545	
9.94594	  9.314767	
9.9792	  9.317083	
10.0125	  9.321849	
10.0457	  9.332541	
10.079	  9.342299	
10.1123	  9.343669	
10.1455	  9.341842	
10.1788	  9.343730	
10.212	  9.350787	
10.2453	  9.359397	
10.2786	  9.363158	
10.3118	  9.364067	
10.3451	  9.367954	
10.3784	  9.372262	
10.4116	  9.374080	
10.4449	  9.373204	
10.4782	  9.367874	
10.5114	  9.362151	
10.5447	  9.363577	
10.578	  9.372557	
10.6112	  9.384337	
10.6445	  9.392167	
10.6777	  9.392168	
10.711	  9.390689	
10.7443	  9.393124	
10.7775	  9.397385	
10.8108	  9.408463	
10.8441	  9.429138	
10.8773	  9.444616	
10.9106	  9.447054	
10.9439	  9.446064	
10.9771	  9.446442	
11.0104	  9.450491	
11.0436	  9.463205	
11.0769	  9.477216	
11.1102	  9.482763	
11.1434	  9.483597	
11.1767	  9.485110	
11.21	  9.488680	
11.2432	  9.494257	
11.2765	  9.496214	
11.3098	  9.491136	
11.343	  9.485045	
11.3763	  9.484504	
11.4096	  9.491954	
11.4428	  9.506155	
